# Blender v2.90.0 OBJ File: ''
# www.blender.org
mtllib untitled.mtl
o Cube
v 6.274780 6.114242 -25.258406
v 6.679415 -6.114242 -8.163438
v 6.274780 15.565908 -6.208423
v 6.274780 -6.114242 8.163438
v -6.274780 15.709313 -28.662918
v -6.274780 -6.114242 -25.258406
v -6.274780 6.114242 8.163438
v -6.274780 -6.114242 8.163438
v 23.943726 -6.634494 -34.111156
v 26.692822 -6.634494 -33.874630
v 29.336269 -6.634494 -33.174141
v 31.772488 -6.634494 -32.036606
v 33.907848 -6.634494 -30.505741
v 35.660294 -6.634494 -28.640375
v 36.962475 -6.634494 -26.512201
v 37.764359 -6.634494 -24.202993
v 38.035122 -6.634494 -21.801498
v 37.764359 -6.634494 -19.400003
v 36.962479 -6.634494 -17.090799
v 35.660294 -6.634494 -14.962621
v 33.907848 -6.634494 -13.097256
v 31.772488 -6.634494 -11.566392
v 29.336266 -6.634494 -10.428856
v 26.692820 -6.634494 -9.728367
v 23.943720 -6.634494 -9.491840
v 21.194626 -6.634494 -9.728370
v 18.551174 -6.634494 -10.428860
v 16.114958 -6.634494 -11.566396
v 13.979595 -6.634494 -13.097261
v 12.227151 -6.634494 -14.962626
v 10.924966 -6.634494 -17.090805
v 10.123086 -6.634494 -19.400017
v 9.852327 -6.634494 -21.801510
v 10.123093 -6.634494 -24.203005
v 10.924976 -6.634494 -26.512215
v 12.227165 -6.634494 -28.640390
v 13.979615 -6.634494 -30.505751
v 16.114981 -6.634494 -32.036617
v 18.551199 -6.634494 -33.174145
v 21.194653 -6.634494 -33.874634
v 23.943726 22.762325 -21.801498
vt 0.625000 0.500000
vt 0.875000 0.500000
vt 0.875000 0.750000
vt 0.625000 0.750000
vt 0.375000 0.750000
vt 0.625000 1.000000
vt 0.375000 1.000000
vt 0.375000 0.000000
vt 0.625000 0.000000
vt 0.625000 0.250000
vt 0.375000 0.250000
vt 0.125000 0.500000
vt 0.375000 0.500000
vt 0.125000 0.750000
vt 0.250000 0.490000
vt 0.250000 0.250000
vt 0.296822 0.485388
vt 0.341844 0.471731
vt 0.383337 0.449553
vt 0.419706 0.419706
vt 0.449553 0.383337
vt 0.471731 0.341844
vt 0.485388 0.296822
vt 0.490000 0.250000
vt 0.485388 0.203178
vt 0.471731 0.158156
vt 0.449553 0.116663
vt 0.419706 0.080294
vt 0.383337 0.050447
vt 0.341844 0.028269
vt 0.296822 0.014612
vt 0.250000 0.010000
vt 0.203178 0.014612
vt 0.158156 0.028269
vt 0.116663 0.050447
vt 0.080294 0.080294
vt 0.050447 0.116663
vt 0.028269 0.158156
vt 0.014611 0.203179
vt 0.010000 0.250000
vt 0.014612 0.296822
vt 0.028269 0.341844
vt 0.050447 0.383337
vt 0.080295 0.419706
vt 0.116663 0.449553
vt 0.158156 0.471731
vt 0.750000 0.490000
vt 0.796822 0.485388
vt 0.841844 0.471731
vt 0.883337 0.449553
vt 0.919706 0.419706
vt 0.949553 0.383337
vt 0.971731 0.341844
vt 0.985388 0.296822
vt 0.990000 0.250000
vt 0.985388 0.203178
vt 0.971731 0.158156
vt 0.949553 0.116663
vt 0.919706 0.080294
vt 0.883337 0.050447
vt 0.841844 0.028269
vt 0.796822 0.014612
vt 0.750000 0.010000
vt 0.703178 0.014612
vt 0.658156 0.028269
vt 0.616663 0.050447
vt 0.580294 0.080294
vt 0.550447 0.116663
vt 0.528269 0.158156
vt 0.514611 0.203179
vt 0.510000 0.250000
vt 0.514612 0.296822
vt 0.528269 0.341844
vt 0.550447 0.383337
vt 0.580295 0.419706
vt 0.616663 0.449553
vt 0.658156 0.471731
vt 0.703179 0.485389
vt 0.203179 0.485389
vn 0.0068 1.0000 0.0026
vn 0.3554 0.3648 0.8606
vn -1.0000 0.0000 0.0000
vn 0.0000 -1.0000 0.0000
vn 0.9998 0.0181 0.0066
vn 0.4460 -0.4577 -0.7691
vn 0.0791 0.3850 -0.9195
vn 0.2361 0.3880 -0.8909
vn 0.3889 0.3936 -0.8330
vn 0.5337 0.4013 -0.7444
vn 0.6647 0.4102 -0.6244
vn 0.7745 0.4189 -0.4739
vn 0.8546 0.4260 -0.2968
vn 0.8971 0.4300 -0.1011
vn 0.8971 0.4300 0.1011
vn 0.8546 0.4260 0.2968
vn 0.7745 0.4190 0.4739
vn 0.6647 0.4102 0.6244
vn 0.5337 0.4013 0.7444
vn 0.3889 0.3936 0.8330
vn 0.2361 0.3880 0.8909
vn 0.0791 0.3850 0.9195
vn -0.0791 0.3850 0.9195
vn -0.2361 0.3880 0.8909
vn -0.3889 0.3936 0.8330
vn -0.5337 0.4013 0.7444
vn -0.6647 0.4102 0.6244
vn -0.7745 0.4190 0.4739
vn -0.8546 0.4260 0.2968
vn -0.8971 0.4300 0.1011
vn -0.8971 0.4300 -0.1011
vn -0.8546 0.4260 -0.2968
vn -0.7745 0.4190 -0.4739
vn -0.6647 0.4102 -0.6244
vn -0.5337 0.4013 -0.7444
vn -0.3889 0.3936 -0.8330
vn -0.2361 0.3880 -0.8909
vn -0.0791 0.3850 -0.9195
usemtl Material
s off
f 1/1/1 5/2/1 7/3/1 3/4/1
f 4/5/2 3/4/2 7/6/2 8/7/2
f 8/8/3 7/9/3 5/10/3 6/11/3
f 6/12/4 2/13/4 4/5/4 8/14/4
f 2/13/5 1/1/5 3/4/5 4/5/5
f 6/11/6 5/10/6 1/1/6 2/13/6
f 9/15/7 41/16/7 10/17/7
f 10/17/8 41/16/8 11/18/8
f 11/18/9 41/16/9 12/19/9
f 12/19/10 41/16/10 13/20/10
f 13/20/11 41/16/11 14/21/11
f 14/21/12 41/16/12 15/22/12
f 15/22/13 41/16/13 16/23/13
f 16/23/14 41/16/14 17/24/14
f 17/24/15 41/16/15 18/25/15
f 18/25/16 41/16/16 19/26/16
f 19/26/17 41/16/17 20/27/17
f 20/27/18 41/16/18 21/28/18
f 21/28/19 41/16/19 22/29/19
f 22/29/20 41/16/20 23/30/20
f 23/30/21 41/16/21 24/31/21
f 24/31/22 41/16/22 25/32/22
f 25/32/23 41/16/23 26/33/23
f 26/33/24 41/16/24 27/34/24
f 27/34/25 41/16/25 28/35/25
f 28/35/26 41/16/26 29/36/26
f 29/36/27 41/16/27 30/37/27
f 30/37/28 41/16/28 31/38/28
f 31/38/29 41/16/29 32/39/29
f 32/39/30 41/16/30 33/40/30
f 33/40/31 41/16/31 34/41/31
f 34/41/32 41/16/32 35/42/32
f 35/42/33 41/16/33 36/43/33
f 36/43/34 41/16/34 37/44/34
f 37/44/35 41/16/35 38/45/35
f 38/45/36 41/16/36 39/46/36
f 9/47/4 10/48/4 11/49/4 12/50/4 13/51/4 14/52/4 15/53/4 16/54/4 17/55/4 18/56/4 19/57/4 20/58/4 21/59/4 22/60/4 23/61/4 24/62/4 25/63/4 26/64/4 27/65/4 28/66/4 29/67/4 30/68/4 31/69/4 32/70/4 33/71/4 34/72/4 35/73/4 36/74/4 37/75/4 38/76/4 39/77/4 40/78/4
f 39/46/37 41/16/37 40/79/37
f 40/79/38 41/16/38 9/15/38
